<svg width="525" height="343" viewBox="0 0 525 343" fill="none" xmlns="http://www.w3.org/2000/svg">
<rect width="523" height="343" fill="#000955"/>
<path d="M53.7372 171H43.38V144.108H53.6321C56.401 144.108 58.7932 144.647 60.8085 145.723C62.8327 146.791 64.3924 148.332 65.4877 150.345C66.5917 152.35 67.1438 154.753 67.1438 157.554C67.1438 160.355 66.5961 162.763 65.5008 164.776C64.4055 166.781 62.8546 168.321 60.848 169.398C58.8414 170.466 56.4711 171 53.7372 171ZM50.6879 164.802H53.4744C54.8063 164.802 55.941 164.588 56.8786 164.159C57.8249 163.73 58.5434 162.99 59.0341 161.94C59.5336 160.889 59.7833 159.427 59.7833 157.554C59.7833 155.681 59.5292 154.219 59.021 153.168C58.5215 152.118 57.7855 151.378 56.8129 150.949C55.849 150.52 54.6661 150.306 53.2641 150.306H50.6879V164.802Z" fill="white"/>
<path d="M70.525 171V144.108H89.925V149.991H77.8329V154.613H88.9261V160.495H77.8329V165.117H89.8725V171H70.525Z" fill="white"/>
<path d="M107.915 171H100.029L108.914 144.108H118.904L127.789 171H119.902L114.014 151.514H113.804L107.915 171ZM106.443 160.39H121.269V165.853H106.443V160.39Z" fill="white"/>
<path d="M153.672 144.108V171H147.573L137.847 156.871H137.689V171H130.381V144.108H136.585L146.154 158.184H146.364V144.108H153.672Z" fill="white"/>
<path d="M167.486 171H157.129V144.108H167.381C170.15 144.108 172.542 144.647 174.557 145.723C176.581 146.791 178.141 148.332 179.236 150.345C180.34 152.35 180.892 154.753 180.892 157.554C180.892 160.355 180.345 162.763 179.249 164.776C178.154 166.781 176.603 168.321 174.597 169.398C172.59 170.466 170.22 171 167.486 171ZM164.436 164.802H167.223C168.555 164.802 169.69 164.588 170.627 164.159C171.573 163.73 172.292 162.99 172.783 161.94C173.282 160.889 173.532 159.427 173.532 157.554C173.532 155.681 173.278 154.219 172.77 153.168C172.27 152.118 171.534 151.378 170.561 150.949C169.598 150.52 168.415 150.306 167.013 150.306H164.436V164.802Z" fill="white"/>
<path d="M184.274 171V144.108H195.893C197.89 144.108 199.638 144.471 201.137 145.198C202.635 145.925 203.801 146.971 204.633 148.336C205.465 149.702 205.882 151.339 205.882 153.247C205.882 155.173 205.452 156.797 204.594 158.119C203.744 159.441 202.548 160.438 201.005 161.113C199.472 161.787 197.68 162.124 195.63 162.124H188.69V156.451H194.158C195.016 156.451 195.748 156.346 196.353 156.136C196.966 155.917 197.435 155.571 197.759 155.099C198.092 154.626 198.258 154.009 198.258 153.247C198.258 152.477 198.092 151.851 197.759 151.369C197.435 150.879 196.966 150.52 196.353 150.293C195.748 150.056 195.016 149.938 194.158 149.938H191.581V171H184.274ZM200.046 158.657L206.775 171H198.837L192.265 158.657H200.046Z" fill="white"/>
<path d="M215.989 171H208.103L216.988 144.108H226.977L235.862 171H227.976L222.088 151.514H221.878L215.989 171ZM214.517 160.39H229.343V165.853H214.517V160.39Z" fill="white"/>
<path d="M248.812 171H238.455V144.108H248.707C251.476 144.108 253.868 144.647 255.883 145.723C257.908 146.791 259.467 148.332 260.563 150.345C261.667 152.35 262.219 154.753 262.219 157.554C262.219 160.355 261.671 162.763 260.576 164.776C259.48 166.781 257.93 168.321 255.923 169.398C253.916 170.466 251.546 171 248.812 171ZM245.763 164.802H248.549C249.881 164.802 251.016 164.588 251.954 164.159C252.9 163.73 253.618 162.99 254.109 161.94C254.609 160.889 254.858 159.427 254.858 157.554C254.858 155.681 254.604 154.219 254.096 153.168C253.596 152.118 252.86 151.378 251.888 150.949C250.924 150.52 249.741 150.306 248.339 150.306H245.763V164.802Z" fill="white"/>
<path d="M265.6 171V144.108H285V149.991H272.908V154.613H284.001V160.495H272.908V165.117H284.947V171H265.6Z" fill="white"/>
<path d="M59.7067 62.4722C59.7067 64.441 59.3462 66.1338 58.6252 67.5504C57.9042 68.961 56.9158 70.0475 55.66 70.8098C54.4102 71.5662 52.9892 71.9443 51.3969 71.9443C49.7987 71.9443 48.3716 71.5662 47.1158 70.8098C45.8661 70.0475 44.8807 68.958 44.1596 67.5414C43.4386 66.1248 43.0781 64.435 43.0781 62.4722C43.0781 60.5033 43.4386 58.8136 44.1596 57.4029C44.8807 55.9863 45.8661 54.8998 47.1158 54.1435C48.3716 53.3812 49.7987 53 51.3969 53C52.9892 53 54.4102 53.3812 55.66 54.1435C56.9158 54.8998 57.9042 55.9863 58.6252 57.4029C59.3462 58.8136 59.7067 60.5033 59.7067 62.4722ZM56.9488 62.4722C56.9488 60.9715 56.7055 59.708 56.2188 58.6815C55.7381 57.649 55.0771 56.8687 54.236 56.3405C53.4008 55.8062 52.4544 55.5391 51.3969 55.5391C50.3334 55.5391 49.3841 55.8062 48.5489 56.3405C47.7137 56.8687 47.0528 57.649 46.5661 58.6815C46.0854 59.708 45.845 60.9715 45.845 62.4722C45.845 63.9728 46.0854 65.2394 46.5661 66.2718C47.0528 67.2983 47.7137 68.0786 48.5489 68.6129C49.3841 69.1411 50.3334 69.4052 51.3969 69.4052C52.4544 69.4052 53.4008 69.1411 54.236 68.6129C55.0771 68.0786 55.7381 67.2983 56.2188 66.2718C56.7055 65.2394 56.9488 63.9728 56.9488 62.4722Z" fill="white"/>
<path d="M63.1789 71.6922V53.2521H74.6252V55.6472H65.9639V61.2656H73.805V63.6517H65.9639V71.6922H63.1789Z" fill="white"/>
<path d="M80.835 53.2521V71.6922H78.05V53.2521H80.835Z" fill="white"/>
<path d="M100.221 59.2488H97.4095C97.3014 58.6485 97.1001 58.1203 96.8056 57.6641C96.5112 57.2079 96.1507 56.8207 95.7241 56.5025C95.2975 56.1844 94.8198 55.9443 94.2911 55.7822C93.7683 55.6202 93.2125 55.5391 92.6237 55.5391C91.5602 55.5391 90.6078 55.8062 89.7667 56.3405C88.9315 56.8747 88.2705 57.6581 87.7838 58.6905C87.3032 59.723 87.0628 60.9835 87.0628 62.4722C87.0628 63.9728 87.3032 65.2394 87.7838 66.2718C88.2705 67.3043 88.9345 68.0846 89.7757 68.6129C90.6169 69.1411 91.5632 69.4052 92.6147 69.4052C93.1975 69.4052 93.7503 69.3272 94.2731 69.1711C94.8018 69.0091 95.2795 68.7719 95.7061 68.4598C96.1327 68.1477 96.4932 67.7665 96.7876 67.3163C97.0881 66.8601 97.2953 66.3379 97.4095 65.7496L100.221 65.7586C100.071 66.665 99.7799 67.4994 99.3473 68.2617C98.9207 69.0181 98.3709 69.6723 97.6979 70.2246C97.031 70.7708 96.2679 71.194 95.4087 71.4941C94.5494 71.7943 93.6121 71.9443 92.5967 71.9443C90.9984 71.9443 89.5744 71.5662 88.3246 70.8098C87.0748 70.0475 86.0894 68.958 85.3684 67.5414C84.6534 66.1248 84.2959 64.435 84.2959 62.4722C84.2959 60.5033 84.6564 58.8136 85.3774 57.4029C86.0984 55.9863 87.0838 54.8998 88.3336 54.1435C89.5834 53.3812 91.0044 53 92.5967 53C93.5761 53 94.4894 53.1411 95.3366 53.4232C96.1898 53.6993 96.9559 54.1075 97.6348 54.6477C98.3138 55.182 98.8756 55.8363 99.3202 56.6106C99.7649 57.3789 100.065 58.2583 100.221 59.2488Z" fill="white"/>
<path d="M106.339 53.2521V71.6922H103.554V53.2521H106.339Z" fill="white"/>
<path d="M125.293 53.2521V71.6922H122.733L113.351 58.1683H113.18V71.6922H110.395V53.2521H112.972L122.364 66.7941H122.535V53.2521H125.293Z" fill="white"/>
<path d="M130.915 71.6922H127.958L134.601 53.2521H137.818L144.461 71.6922H141.505L136.286 56.6016H136.142L130.915 71.6922ZM131.41 64.4711H141V66.8121H131.41V64.4711Z" fill="white"/>
<path d="M169.174 59.2488H166.362C166.254 58.6485 166.052 58.1203 165.758 57.6641C165.464 57.2079 165.103 56.8207 164.677 56.5025C164.25 56.1844 163.772 55.9443 163.243 55.7822C162.721 55.6202 162.165 55.5391 161.576 55.5391C160.513 55.5391 159.56 55.8062 158.719 56.3405C157.884 56.8747 157.223 57.6581 156.736 58.6905C156.256 59.723 156.015 60.9835 156.015 62.4722C156.015 63.9728 156.256 65.2394 156.736 66.2718C157.223 67.3043 157.887 68.0846 158.728 68.6129C159.569 69.1411 160.516 69.4052 161.567 69.4052C162.15 69.4052 162.703 69.3272 163.225 69.1711C163.754 69.0091 164.232 68.7719 164.658 68.4598C165.085 68.1477 165.446 67.7665 165.74 67.3163C166.04 66.8601 166.248 66.3379 166.362 65.7496L169.174 65.7586C169.024 66.665 168.732 67.4994 168.3 68.2617C167.873 69.0181 167.323 69.6723 166.65 70.2246C165.983 70.7708 165.22 71.194 164.361 71.4941C163.502 71.7943 162.565 71.9443 161.549 71.9443C159.951 71.9443 158.527 71.5662 157.277 70.8098C156.027 70.0475 155.042 68.958 154.321 67.5414C153.606 66.1248 153.248 64.435 153.248 62.4722C153.248 60.5033 153.609 58.8136 154.33 57.4029C155.051 55.9863 156.036 54.8998 157.286 54.1435C158.536 53.3812 159.957 53 161.549 53C162.528 53 163.442 53.1411 164.289 53.4232C165.142 53.6993 165.908 54.1075 166.587 54.6477C167.266 55.182 167.828 55.8363 168.273 56.6106C168.717 57.3789 169.018 58.2583 169.174 59.2488Z" fill="white"/>
<path d="M184.376 53.2521H187.17V65.3805C187.17 66.671 186.867 67.8145 186.26 68.811C185.653 69.8014 184.8 70.5817 183.7 71.152C182.601 71.7162 181.312 71.9984 179.834 71.9984C178.362 71.9984 177.076 71.7162 175.976 71.152C174.877 70.5817 174.024 69.8014 173.417 68.811C172.81 67.8145 172.506 66.671 172.506 65.3805V53.2521H175.291V65.1554C175.291 65.9897 175.475 66.7311 175.841 67.3793C176.214 68.0276 176.739 68.5378 177.418 68.91C178.097 69.2762 178.902 69.4593 179.834 69.4593C180.771 69.4593 181.579 69.2762 182.258 68.91C182.943 68.5378 183.466 68.0276 183.826 67.3793C184.193 66.7311 184.376 65.9897 184.376 65.1554V53.2521Z" fill="white"/>
<path d="M191.219 71.6922V53.2521H194.004V69.2972H202.368V71.6922H191.219Z" fill="white"/>
<path d="M202.231 55.6472V53.2521H216.516V55.6472H210.757V71.6922H207.981V55.6472H202.231Z" fill="white"/>
<path d="M231.542 53.2521H234.336V65.3805C234.336 66.671 234.033 67.8145 233.426 68.811C232.819 69.8014 231.966 70.5817 230.867 71.152C229.767 71.7162 228.478 71.9984 227 71.9984C225.528 71.9984 224.242 71.7162 223.143 71.152C222.043 70.5817 221.19 69.8014 220.583 68.811C219.976 67.8145 219.673 66.671 219.673 65.3805V53.2521H222.458V65.1554C222.458 65.9897 222.641 66.7311 223.007 67.3793C223.38 68.0276 223.906 68.5378 224.585 68.91C225.264 69.2762 226.069 69.4593 227 69.4593C227.937 69.4593 228.745 69.2762 229.424 68.91C230.109 68.5378 230.632 68.0276 230.993 67.3793C231.359 66.7311 231.542 65.9897 231.542 65.1554V53.2521Z" fill="white"/>
<path d="M238.385 71.6922V53.2521H244.965C246.395 53.2521 247.581 53.4982 248.525 53.9904C249.474 54.4827 250.183 55.164 250.652 56.0343C251.121 56.8987 251.355 57.8982 251.355 59.0327C251.355 60.1612 251.118 61.1546 250.643 62.013C250.174 62.8653 249.465 63.5286 248.516 64.0028C247.572 64.4771 246.386 64.7142 244.956 64.7142H239.972V62.3191H244.703C245.605 62.3191 246.338 62.19 246.903 61.9319C247.473 61.6738 247.891 61.2987 248.155 60.8064C248.42 60.3142 248.552 59.723 248.552 59.0327C248.552 58.3364 248.417 57.7331 248.146 57.2229C247.882 56.7126 247.464 56.3225 246.894 56.0523C246.329 55.7762 245.587 55.6382 244.667 55.6382H241.17V71.6922H238.385ZM247.497 63.3726L252.058 71.6922H248.885L244.415 63.3726H247.497Z" fill="white"/>
<path d="M256.303 71.6922H253.347L259.989 53.2521H263.207L269.849 71.6922H266.893L261.674 56.6016H261.53L256.303 71.6922ZM256.799 64.4711H266.388V66.8121H256.799V64.4711Z" fill="white"/>
<path d="M272.515 71.6922V53.2521H275.3V69.2972H283.663V71.6922H272.515Z" fill="white"/>
<path d="M80.343 107.612C80.343 112.069 79.5375 115.921 77.9265 119.167C76.3154 122.414 74.1054 124.917 71.2964 126.678C68.4874 128.439 65.2791 129.319 61.6715 129.319C58.0639 129.319 54.8556 128.439 52.0466 126.678C49.2376 124.917 47.0276 122.414 45.4166 119.167C43.8055 115.921 43 112.069 43 107.612C43 103.155 43.8055 99.3034 45.4166 96.057C47.0276 92.8105 49.2376 90.3069 52.0466 88.5462C54.8556 86.7854 58.0639 85.905 61.6715 85.905C65.2791 85.905 68.4874 86.7854 71.2964 88.5462C74.1054 90.3069 76.3154 92.8105 77.9265 96.057C79.5375 99.3034 80.343 103.155 80.343 107.612ZM75.386 107.612C75.386 103.953 74.7732 100.865 73.5478 98.3474C72.336 95.83 70.6906 93.9248 68.6114 92.6317C66.5459 91.3386 64.2326 90.6921 61.6715 90.6921C59.1104 90.6921 56.7902 91.3386 54.711 92.6317C52.6456 93.9248 51.0001 95.83 49.7746 98.3474C48.5629 100.865 47.957 103.953 47.957 107.612C47.957 111.271 48.5629 114.359 49.7746 116.877C51.0001 119.394 52.6456 121.299 54.711 122.592C56.7902 123.885 59.1104 124.532 61.6715 124.532C64.2326 124.532 66.5459 123.885 68.6114 122.592C70.6906 121.299 72.336 119.394 73.5478 116.877C74.7732 114.359 75.386 111.271 75.386 107.612Z" fill="white"/>
<path d="M112.089 97.0474C111.841 94.9565 110.836 93.3333 109.073 92.1778C107.311 91.0223 105.149 90.4445 102.588 90.4445C100.715 90.4445 99.0765 90.7471 97.672 91.3524C96.2813 91.9577 95.1935 92.7899 94.4086 93.8491C93.6375 94.9083 93.252 96.112 93.252 97.4601C93.252 98.5881 93.5205 99.5579 94.0575 100.369C94.6083 101.167 95.3105 101.835 96.1642 102.371C97.018 102.894 97.913 103.327 98.8493 103.671C99.7856 104.001 100.646 104.269 101.431 104.476L105.727 105.631C106.829 105.92 108.054 106.319 109.404 106.828C110.767 107.337 112.068 108.032 113.307 108.912C114.56 109.779 115.593 110.893 116.405 112.255C117.218 113.617 117.624 115.288 117.624 117.269C117.624 119.552 117.025 121.616 115.827 123.459C114.643 125.302 112.908 126.767 110.622 127.854C108.35 128.941 105.589 129.484 102.34 129.484C99.3106 129.484 96.6875 128.996 94.4706 128.019C92.2675 127.043 90.5325 125.681 89.2657 123.934C88.0127 122.187 87.3035 120.158 87.1383 117.847H92.4258C92.5635 119.442 93.1005 120.763 94.0368 121.808C94.9869 122.84 96.1849 123.61 97.6307 124.119C99.0903 124.615 100.66 124.862 102.34 124.862C104.295 124.862 106.051 124.546 107.607 123.913C109.163 123.266 110.395 122.372 111.304 121.231C112.213 120.075 112.667 118.727 112.667 117.186C112.667 115.783 112.275 114.641 111.49 113.761C110.705 112.881 109.672 112.165 108.392 111.615C107.111 111.065 105.727 110.583 104.24 110.171L99.0352 108.685C95.7305 107.736 93.1143 106.381 91.1865 104.62C89.2588 102.859 88.2949 100.555 88.2949 97.7077C88.2949 95.3417 88.9352 93.2782 90.2158 91.5175C91.5101 89.7429 93.2451 88.3673 95.4207 87.3907C97.61 86.4002 100.054 85.905 102.753 85.905C105.479 85.905 107.903 86.3933 110.023 87.37C112.144 88.3329 113.824 89.6535 115.063 91.3318C116.316 93.01 116.977 94.9152 117.046 97.0474H112.089Z" fill="white"/>
<path d="M133.729 128.741L122.163 86.4828H127.368L136.208 120.9H136.621L145.626 86.4828H151.409L160.415 120.9H160.828L169.668 86.4828H174.873L163.306 128.741H158.019L148.683 95.0665H148.353L139.017 128.741H133.729Z" fill="white"/>
<path d="M179.696 128.741H174.325L189.857 86.4828H195.145L210.677 128.741H205.307L192.666 93.1682H192.336L179.696 128.741ZM181.678 112.234H203.324V116.774H181.678V112.234Z" fill="white"/>
<path d="M217.266 128.741V86.4828H222.388V124.202H242.051V128.741H217.266Z" fill="white"/>
<path d="M263.036 128.741H249.982V86.4828H263.614C267.717 86.4828 271.229 87.3288 274.148 89.0207C277.067 90.699 279.304 93.1132 280.86 96.2633C282.416 99.3997 283.194 103.155 283.194 107.53C283.194 111.931 282.409 115.721 280.84 118.899C279.27 122.063 276.984 124.498 273.983 126.203C270.981 127.895 267.332 128.741 263.036 128.741ZM255.104 124.202H262.705C266.203 124.202 269.101 123.528 271.401 122.18C273.7 120.832 275.415 118.913 276.544 116.423C277.673 113.933 278.237 110.969 278.237 107.53C278.237 104.118 277.68 101.181 276.564 98.7188C275.449 96.2427 273.783 94.3443 271.566 93.0238C269.349 91.6894 266.588 91.0223 263.284 91.0223H255.104V124.202Z" fill="white"/>
<path d="M525 268C525 269.657 523.881 271 522.5 271C521.119 271 520 269.657 520 268C520 266.343 521.119 265 522.5 265C523.881 265 525 266.343 525 268Z" fill="#ECECEC"/>
<path d="M525 268C525 269.657 523.881 271 522.5 271C521.119 271 520 269.657 520 268C520 266.343 521.119 265 522.5 265C523.881 265 525 266.343 525 268Z" fill="#ECECEC"/>
<path d="M525 276C525 277.657 523.881 279 522.5 279C521.119 279 520 277.657 520 276C520 274.343 521.119 273 522.5 273C523.881 273 525 274.343 525 276Z" fill="#ECECEC"/>
<path d="M525 284C525 285.657 523.881 287 522.5 287C521.119 287 520 285.657 520 284C520 282.343 521.119 281 522.5 281C523.881 281 525 282.343 525 284Z" fill="#ECECEC"/>
<path d="M525 292C525 293.657 523.881 295 522.5 295C521.119 295 520 293.657 520 292C520 290.343 521.119 289 522.5 289C523.881 289 525 290.343 525 292Z" fill="#ECECEC"/>
<path d="M525 300C525 301.657 523.881 303 522.5 303C521.119 303 520 301.657 520 300C520 298.343 521.119 297 522.5 297C523.881 297 525 298.343 525 300Z" fill="#ECECEC"/>
<path d="M525 140C525 141.657 523.881 143 522.5 143C521.119 143 520 141.657 520 140C520 138.343 521.119 137 522.5 137C523.881 137 525 138.343 525 140Z" fill="#ECECEC"/>
<path d="M525 148C525 149.657 523.881 151 522.5 151C521.119 151 520 149.657 520 148C520 146.343 521.119 145 522.5 145C523.881 145 525 146.343 525 148Z" fill="#ECECEC"/>
<path d="M525 156C525 157.657 523.881 159 522.5 159C521.119 159 520 157.657 520 156C520 154.343 521.119 153 522.5 153C523.881 153 525 154.343 525 156Z" fill="#ECECEC"/>
<path d="M525 164C525 165.657 523.881 167 522.5 167C521.119 167 520 165.657 520 164C520 162.343 521.119 161 522.5 161C523.881 161 525 162.343 525 164Z" fill="#ECECEC"/>
<path d="M525 172C525 173.657 523.881 175 522.5 175C521.119 175 520 173.657 520 172C520 170.343 521.119 169 522.5 169C523.881 169 525 170.343 525 172Z" fill="#ECECEC"/>
<path d="M525 180C525 181.657 523.881 183 522.5 183C521.119 183 520 181.657 520 180C520 178.343 521.119 177 522.5 177C523.881 177 525 178.343 525 180Z" fill="#ECECEC"/>
<path d="M525 188C525 189.657 523.881 191 522.5 191C521.119 191 520 189.657 520 188C520 186.343 521.119 185 522.5 185C523.881 185 525 186.343 525 188Z" fill="#ECECEC"/>
<path d="M525 196C525 197.657 523.881 199 522.5 199C521.119 199 520 197.657 520 196C520 194.343 521.119 193 522.5 193C523.881 193 525 194.343 525 196Z" fill="#ECECEC"/>
<path d="M525 196C525 197.657 523.881 199 522.5 199C521.119 199 520 197.657 520 196C520 194.343 521.119 193 522.5 193C523.881 193 525 194.343 525 196Z" fill="#ECECEC"/>
<path d="M525 204C525 205.657 523.881 207 522.5 207C521.119 207 520 205.657 520 204C520 202.343 521.119 201 522.5 201C523.881 201 525 202.343 525 204Z" fill="#ECECEC"/>
<path d="M525 212C525 213.657 523.881 215 522.5 215C521.119 215 520 213.657 520 212C520 210.343 521.119 209 522.5 209C523.881 209 525 210.343 525 212Z" fill="#ECECEC"/>
<path d="M525 220C525 221.657 523.881 223 522.5 223C521.119 223 520 221.657 520 220C520 218.343 521.119 217 522.5 217C523.881 217 525 218.343 525 220Z" fill="#ECECEC"/>
<path d="M525 228C525 229.657 523.881 231 522.5 231C521.119 231 520 229.657 520 228C520 226.343 521.119 225 522.5 225C523.881 225 525 226.343 525 228Z" fill="#ECECEC"/>
<path d="M525 236C525 237.657 523.881 239 522.5 239C521.119 239 520 237.657 520 236C520 234.343 521.119 233 522.5 233C523.881 233 525 234.343 525 236Z" fill="#ECECEC"/>
<path d="M525 244C525 245.657 523.881 247 522.5 247C521.119 247 520 245.657 520 244C520 242.343 521.119 241 522.5 241C523.881 241 525 242.343 525 244Z" fill="#ECECEC"/>
<path d="M525 252C525 253.657 523.881 255 522.5 255C521.119 255 520 253.657 520 252C520 250.343 521.119 249 522.5 249C523.881 249 525 250.343 525 252Z" fill="#ECECEC"/>
<path d="M525 260C525 261.657 523.881 263 522.5 263C521.119 263 520 261.657 520 260C520 258.343 521.119 257 522.5 257C523.881 257 525 258.343 525 260Z" fill="#ECECEC"/>
<path d="M525 12C525 13.6569 523.881 15 522.5 15C521.119 15 520 13.6569 520 12C520 10.3431 521.119 9 522.5 9C523.881 9 525 10.3431 525 12Z" fill="#ECECEC"/>
<path d="M525 20C525 21.6569 523.881 23 522.5 23C521.119 23 520 21.6569 520 20C520 18.3431 521.119 17 522.5 17C523.881 17 525 18.3431 525 20Z" fill="#ECECEC"/>
<path d="M525 28C525 29.6569 523.881 31 522.5 31C521.119 31 520 29.6569 520 28C520 26.3431 521.119 25 522.5 25C523.881 25 525 26.3431 525 28Z" fill="#ECECEC"/>
<path d="M525 36C525 37.6569 523.881 39 522.5 39C521.119 39 520 37.6569 520 36C520 34.3431 521.119 33 522.5 33C523.881 33 525 34.3431 525 36Z" fill="#ECECEC"/>
<path d="M525 44C525 45.6569 523.881 47 522.5 47C521.119 47 520 45.6569 520 44C520 42.3431 521.119 41 522.5 41C523.881 41 525 42.3431 525 44Z" fill="#ECECEC"/>
<path d="M525 52C525 53.6569 523.881 55 522.5 55C521.119 55 520 53.6569 520 52C520 50.3431 521.119 49 522.5 49C523.881 49 525 50.3431 525 52Z" fill="#ECECEC"/>
<path d="M525 60C525 61.6569 523.881 63 522.5 63C521.119 63 520 61.6569 520 60C520 58.3431 521.119 57 522.5 57C523.881 57 525 58.3431 525 60Z" fill="#ECECEC"/>
<path d="M525 68C525 69.6569 523.881 71 522.5 71C521.119 71 520 69.6569 520 68C520 66.3431 521.119 65 522.5 65C523.881 65 525 66.3431 525 68Z" fill="#ECECEC"/>
<path d="M525 76C525 77.6569 523.881 79 522.5 79C521.119 79 520 77.6569 520 76C520 74.3431 521.119 73 522.5 73C523.881 73 525 74.3431 525 76Z" fill="#ECECEC"/>
<path d="M525 84C525 85.6569 523.881 87 522.5 87C521.119 87 520 85.6569 520 84C520 82.3431 521.119 81 522.5 81C523.881 81 525 82.3431 525 84Z" fill="#ECECEC"/>
<path d="M525 92C525 93.6569 523.881 95 522.5 95C521.119 95 520 93.6569 520 92C520 90.3431 521.119 89 522.5 89C523.881 89 525 90.3431 525 92Z" fill="#ECECEC"/>
<path d="M525 100C525 101.657 523.881 103 522.5 103C521.119 103 520 101.657 520 100C520 98.3431 521.119 97 522.5 97C523.881 97 525 98.3431 525 100Z" fill="#ECECEC"/>
<path d="M525 108C525 109.657 523.881 111 522.5 111C521.119 111 520 109.657 520 108C520 106.343 521.119 105 522.5 105C523.881 105 525 106.343 525 108Z" fill="#ECECEC"/>
<path d="M525 116C525 117.657 523.881 119 522.5 119C521.119 119 520 117.657 520 116C520 114.343 521.119 113 522.5 113C523.881 113 525 114.343 525 116Z" fill="#ECECEC"/>
<path d="M525 124C525 125.657 523.881 127 522.5 127C521.119 127 520 125.657 520 124C520 122.343 521.119 121 522.5 121C523.881 121 525 122.343 525 124Z" fill="#ECECEC"/>
<path d="M525 124C525 125.657 523.881 127 522.5 127C521.119 127 520 125.657 520 124C520 122.343 521.119 121 522.5 121C523.881 121 525 122.343 525 124Z" fill="#ECECEC"/>
<path d="M525 132C525 133.657 523.881 135 522.5 135C521.119 135 520 133.657 520 132C520 130.343 521.119 129 522.5 129C523.881 129 525 130.343 525 132Z" fill="#ECECEC"/>
<path d="M525 4C525 5.65685 523.881 7 522.5 7C521.119 7 520 5.65685 520 4C520 2.34315 521.119 1 522.5 1C523.881 1 525 2.34315 525 4Z" fill="#ECECEC"/>
<path d="M525 308C525 309.657 523.881 311 522.5 311C521.119 311 520 309.657 520 308C520 306.343 521.119 305 522.5 305C523.881 305 525 306.343 525 308Z" fill="#ECECEC"/>
<path d="M525 316C525 317.657 523.881 319 522.5 319C521.119 319 520 317.657 520 316C520 314.343 521.119 313 522.5 313C523.881 313 525 314.343 525 316Z" fill="#ECECEC"/>
<path d="M525 324C525 325.657 523.881 327 522.5 327C521.119 327 520 325.657 520 324C520 322.343 521.119 321 522.5 321C523.881 321 525 322.343 525 324Z" fill="#ECECEC"/>
<path d="M525 332C525 333.657 523.881 335 522.5 335C521.119 335 520 333.657 520 332C520 330.343 521.119 329 522.5 329C523.881 329 525 330.343 525 332Z" fill="#ECECEC"/>
<path d="M525 340C525 341.657 523.881 343 522.5 343C521.119 343 520 341.657 520 340C520 338.343 521.119 337 522.5 337C523.881 337 525 338.343 525 340Z" fill="#ECECEC"/>
</svg>
